<svg id="Layer_1" data-name="Layer 1" xmlns="http://www.w3.org/2000/svg" viewBox="0 0 600 300"><defs><style>.cls-1{fill:#fff;}.cls-2{fill:#00334d;}</style></defs><title>Artboard 1</title><circle class="cls-1" cx="150" cy="150" r="145"/><path class="cls-2" d="M121.7,87a5.85,5.85,0,0,1,0-8.3l.2-.2a5.85,5.85,0,0,1,8.3,0l67.3,67.3a5.85,5.85,0,0,1,0,8.3l-.2.2a5.85,5.85,0,0,1-8.3,0Z"/><path class="cls-2" d="M121.7,213a5.85,5.85,0,0,0,0,8.3l.2.2a5.85,5.85,0,0,0,8.3,0l67.3-67.3a5.85,5.85,0,0,0,0-8.3l-.2-.2a5.85,5.85,0,0,0-8.3,0Z"/><circle class="cls-1" cx="450" cy="150" r="145"/><path class="cls-2" d="M411,154.35a5.85,5.85,0,0,1-8.3,0l-.2-.2a5.85,5.85,0,0,1,0-8.3l67.3-67.3a5.85,5.85,0,0,1,8.3,0l.2.2a5.85,5.85,0,0,1,0,8.3Z"/><path class="cls-2" d="M411,145.65a5.85,5.85,0,0,0-8.3,0l-.2.2a5.85,5.85,0,0,0,0,8.3l67.3,67.3a5.85,5.85,0,0,0,8.3,0l.2-.2a5.85,5.85,0,0,0,0-8.3Z"/></svg>