<svg id="Layer_1" data-name="Layer 1" xmlns="http://www.w3.org/2000/svg" viewBox="0 0 300 300"><defs><style>.cls-1{fill:#fff;}.cls-2{fill:#00334d;}</style></defs><title>Artboard 1</title><path class="cls-1" d="M150,1.3a148.75,148.75,0,1,1,0,297.5"/><path class="cls-2" d="M177.8,154.9a5.85,5.85,0,0,1-8.3,0l-.2-.2a5.85,5.85,0,0,1,0-8.3l67.3-67.3a5.85,5.85,0,0,1,8.3,0l.2.2a5.85,5.85,0,0,1,0,8.3Z"/><path class="cls-2" d="M177.8,146.1a5.85,5.85,0,0,0-8.3,0l-.2.2a5.85,5.85,0,0,0,0,8.3l67.3,67.3a5.85,5.85,0,0,0,8.3,0l.2-.2a5.85,5.85,0,0,0,0-8.3Z"/><path class="cls-1" d="M150.8,1.3a148.75,148.75,0,1,0,0,297.5"/><path class="cls-2" d="M55.7,87.6a5.85,5.85,0,0,1,0-8.3l.2-.2a5.85,5.85,0,0,1,8.3,0l67.3,67.3a5.85,5.85,0,0,1,0,8.3l-.2.2a5.85,5.85,0,0,1-8.3,0Z"/><path class="cls-2" d="M55.7,213.5a5.85,5.85,0,0,0,0,8.3l.2.2a5.85,5.85,0,0,0,8.3,0l67.3-67.3a5.85,5.85,0,0,0,0-8.3l-.2-.2a5.85,5.85,0,0,0-8.3,0Z"/></svg>