<svg id="Layer_1" data-name="Layer 1" xmlns="http://www.w3.org/2000/svg" viewBox="0 0 25 20"><defs><style>.cls-1{fill:#0092c8;}</style></defs><title>Artboard 1</title><path class="cls-1" d="M8.53,7.22a5.76,5.76,0,0,0-.28,2.42,3.81,3.81,0,0,1,.22-2.73,1.91,1.91,0,0,0,.17-.82,7.14,7.14,0,0,0-.18-1.29l0-.07a2.46,2.46,0,0,0-.2-.44c0-.08.12-.05.12-.05a3.45,3.45,0,0,1,1.85,1.25A12.73,12.73,0,0,0,8.53,7.22Z"/><path class="cls-1" d="M15.17,6.24a.6.6,0,0,0-.12.33A1.18,1.18,0,0,1,15,7a2.48,2.48,0,0,1-.31.49c-.21.26-.44.5-.66.75s-.1.15.06.2l0,0a8.63,8.63,0,0,1,.78.46,3.65,3.65,0,0,1,.53.48c.09.1.06.19-.07.21h-.11l-.71-.06-1.38-.13a.72.72,0,0,0-.53.16,5.48,5.48,0,0,1-1.81,1,8.19,8.19,0,0,1-.9.17l-.15,0a1.11,1.11,0,0,1,0-.15l.12-.21a.21.21,0,0,0-.13,0L8.66,11l-.17.09-.17.09-.05,0c-.08,0-1.26.54-.35-.42a7.13,7.13,0,0,1,1.6-1.31,4.27,4.27,0,0,0,.81-.68c.12-.13.12-.2,0-.37A6.39,6.39,0,0,1,10,7.77a.56.56,0,0,1,0-.29,7.76,7.76,0,0,0,.48.76,3.14,3.14,0,0,1-.31-1,4,4,0,0,0,.51.75,4,4,0,0,1-.33-.95c.16.2.36.6.51.76a1.29,1.29,0,0,0,1.65.35A2,2,0,0,0,13.43,7c0-.14.1-.28.16-.44l-.88.15s-.23,0-.27-.09a.41.41,0,0,1,.17-.53,2.05,2.05,0,0,1,.44-.19,2.88,2.88,0,0,0,1-.65,4.18,4.18,0,0,0,.57-.6l.54-.83s0-.07,0-.07l-.24.05-.49.16a2.61,2.61,0,0,1-1,.26,2.84,2.84,0,0,0-1.13.29l-.05,0-.06,0a2.13,2.13,0,0,1,1-.52,6.84,6.84,0,0,0,1.2-.3,5.63,5.63,0,0,1,.61-.2.74.74,0,0,1,.71.08.31.31,0,0,1,.08.24,5.56,5.56,0,0,1,0,.78A3.78,3.78,0,0,1,15.17,6.24Zm.11-.46-.38.28c0-.05,0-.3,0-.36a1.34,1.34,0,0,0-.13.2l-.21.28-.1-.41-.21.35c-.06-.12-.11-.26-.15-.36L14,5.91l-.11.18c0-.05-.08-.27-.12-.32s-.09.29-.15.36L13.5,5.9l-.15.26L13.26,6l-.19.31L13,6.06l-.08.18c0,.1-.11.19-.14.19a.58.58,0,0,0,0-.25.63.63,0,0,0-.13.23.19.19,0,0,0,0,.14s.19,0,.24,0A.72.72,0,0,0,13,6.38l.12.12.17-.23.12.18.14-.18.12.14.16-.23.12.18.16-.28.15.24.17-.18s.11.18.12.18l.23-.15,0,.2L15,6.16l0,.38c0-.38.4-.6.34-.76Z"/><path class="cls-1" d="M9.35,11.28a2.89,2.89,0,0,1,.59.3c.19.13.39.24.59.35s.15.06.2,0,0-.14,0-.2-.17-.4-.25-.6-.07-.12,0-.17a0,0,0,0,1,0,0s.06.05.07.08a4.29,4.29,0,0,0,1,1.45c.42.4.84.79,1.26,1.19a4.29,4.29,0,0,1,.35.44c0-.39-.34-.63-.44-1a1.61,1.61,0,0,0,.82,0,10.85,10.85,0,0,1,1.91-.14,1.93,1.93,0,0,1,.34,0,.36.36,0,0,1,.16.08.5.5,0,0,1,.09.14l-.1.06-.21.05h0c-1,.27-3.06,1.11-3.23,3.29a.24.24,0,0,1-.19-.17,2.58,2.58,0,0,1-.14-1.12c0-.41.05-.83.06-1.24a.5.5,0,0,0-.28-.5c-.56-.29-1.1-.63-1.67-.9a6.9,6.9,0,0,1-1.59-1.4C8.61,11.1,9.19,11.22,9.35,11.28Z"/><path class="cls-1" d="M12.9,4.63a.18.18,0,0,1,.06.24l0,0c-.06.06-.24.07-.29,0a1.25,1.25,0,0,1,0-.17c0-.07,0-.09.11-.12A.18.18,0,0,1,12.9,4.63Zm-.24.21s.08-.12.21-.18a.27.27,0,0,0-.17,0c-.06,0,0,.12,0,.17Z"/></svg>