<svg id="Lager_1" data-name="Lager 1" xmlns="http://www.w3.org/2000/svg" viewBox="0 0 82.67 122"><defs><style>.cls-1{fill:#0092c8;}</style></defs><title>Artboard 1</title><path class="cls-1" d="M13.17,36.38c-3.58,6.23-2.39,21-2.39,21-2.51-12.24-.49-19.53,1.9-23.63a16.57,16.57,0,0,0,1.48-7.14A61.86,61.86,0,0,0,12.6,15.44c-.07-.21-.13-.42-.18-.62A21.35,21.35,0,0,0,10.66,11c-.38-.65,1.08-.44,1.08-.44,9.13,1.56,16,10.81,16,10.81C20.41,27.23,13.17,36.38,13.17,36.38Z"/><path class="cls-1" d="M70.74,27.82a5.22,5.22,0,0,0-1.06,2.84,10.26,10.26,0,0,1-.77,3.65,21.53,21.53,0,0,1-2.71,4.25c-1.82,2.24-3.81,4.31-5.7,6.48-1,1.1-.87,1.34.48,1.76a2.16,2.16,0,0,1,.39.17,74.81,74.81,0,0,1,6.78,4,31.66,31.66,0,0,1,4.58,4.2c.82.86.49,1.64-.63,1.8a4.57,4.57,0,0,1-.92,0c-2.07-.16-4.13-.31-6.19-.5-4-.37-8-.77-12-1.13a6.28,6.28,0,0,0-4.57,1.4A47.5,47.5,0,0,1,32.74,65a71,71,0,0,1-7.83,1.44,4.14,4.14,0,0,1-1.28-.23A9.62,9.62,0,0,1,24,64.91a20.1,20.1,0,0,1,1-1.81,1.85,1.85,0,0,0-1.14.31c-3.19,1.84-6.37,3.7-9.57,5.52l-1.49.8c.56-.34,1.17-.71-1.45.78l-.45.24C10.24,71,0,75.47,7.87,67.13c4.49-4.5,5.31-5.76,13.85-11.39a37,37,0,0,0,7-5.92c1.06-1.16,1-1.77.22-3.19a55.41,55.41,0,0,1-2.76-5.51,4.82,4.82,0,0,1-.31-2.49A67.21,67.21,0,0,0,30,45.25S27,39,27.3,37c1.12,1.56,2.94,5.48,4.39,6.47.12,0-3.06-6.29-2.85-8.2C30.19,37,32,40.51,33.22,41.89c4,4.58,9.37,5.62,14.32,3,4.17-2.22,6.56-6,8.1-10.52.41-1.25.89-2.46,1.39-3.85L49.4,31.79s-2,.34-2.33-.76c-.62-2.06-.11-3.66,1.46-4.56a17.77,17.77,0,0,1,3.83-1.66c3.33-.93,5.92-3.3,8.75-5.65a36.26,36.26,0,0,0,4.95-5.23l4.72-7.21c.2-.32.23-.63,0-.62a12.42,12.42,0,0,0-2.11.45c-1.44.41-2.86.9-4.26,1.4C61.69,9,59,10.21,56,10.17c-3.53-.05-6.62,1.2-9.75,2.48l-.46.21-.48.17a18.5,18.5,0,0,1,9-4.5,59.24,59.24,0,0,0,10.4-2.6A48.77,48.77,0,0,1,70,4.22c2-.5,4.15-.91,6.13.7A2.71,2.71,0,0,1,76.86,7a48.16,48.16,0,0,1-.07,6.77A32.8,32.8,0,0,1,70.74,27.82Zm.93-4-3.33,2.43c-.14-.47-.21-2.61-.3-3.1a11.59,11.59,0,0,0-1.14,1.71c-.5.75-1.08,1.44-1.79,2.39l-.89-3.52-1.85,3.06c-.48-1-.92-2.22-1.34-3.1,0,0-.45,1-.62,1.33-.28.54-.61,1-.91,1.56-.33-.45-.73-2.37-1-2.77-.38.47-.74,2.47-1.26,3.12l-1-2L54.9,27.17l-.74-1.46-1.65,2.67-.94-2.12c-.28.69-.47,1.13-.65,1.59-.32.83-.92,1.63-1.2,1.61a5,5,0,0,0-.43-2.16,5.48,5.48,0,0,0-1.13,2,1.66,1.66,0,0,0,.27,1.17c.37.4,1.63.26,2.06,0a6.23,6.23,0,0,0,1-1.38l1.08,1,1.48-2,1,1.56,1.17-1.53,1,1.2,1.37-2,1,1.56L61,26.42l1.34,2.12L63.77,27s.93,1.6,1,1.6l2-1.33L66.92,29l2-1.86-.18,3.25c.41-3.33,3.43-5.22,2.93-6.55Z"/><path class="cls-1" d="M20.3,71.5a25.08,25.08,0,0,1,5.15,2.56c1.65,1.11,3.37,2.11,5.11,3.05.45.24,1.28.49,1.71.09s.2-1.22,0-1.72c-.65-1.75-1.45-3.44-2.16-5.18-.19-.47-.57-1-.38-1.47a.4.4,0,0,1,.38-.25c.31,0,.51.44.63.71a37.16,37.16,0,0,0,8.79,12.54c3.62,3.46,7.31,6.85,10.88,10.35a37.16,37.16,0,0,1,3,3.78c0-3.42-2.91-5.49-3.78-8.59,2.43.87,4.75.09,7.09-.26A94,94,0,0,1,73.27,85.9a16.7,16.7,0,0,1,2.91.37,3.08,3.08,0,0,1,1.37.7,4.35,4.35,0,0,1,.74,1.19c-.29.16-.57.35-.87.51-.53.12-1.14.28-1.8.46H75.5c-8.5,2.38-26.5,9.59-28,28.5a2.11,2.11,0,0,1-1.62-1.51,22.38,22.38,0,0,1-1.23-9.73c.17-3.59.44-7.17.55-10.77a4.3,4.3,0,0,0-2.45-4.29c-4.85-2.55-9.53-5.46-14.49-7.78-2.46-1.14-12.89-9.8-13.8-12.09C13.87,69.94,18.92,71,20.3,71.5Z"/><path class="cls-1" d="M51,13.87a1.55,1.55,0,0,1,.26,2.48c-.52.5-2.08.63-2.49,0a10.87,10.87,0,0,1-.4-1.49c-.14-.57.34-.76.92-1.08A1.56,1.56,0,0,1,51,13.87Zm-2.08,1.84c.07.4.67-1,1.78-1.58a2.3,2.3,0,0,0-1.5.16c-.56.39-.39,1-.32,1.43Z"/></svg>