<svg id="Layer_1" data-name="Layer 1" xmlns="http://www.w3.org/2000/svg" viewBox="0 0 265.05 110.5"><defs><style>.cls-1{fill:#00334d;}.cls-2,.cls-3{fill:#fff;}.cls-3{stroke:#fff;stroke-miterlimit:10;stroke-width:0.15px;}</style></defs><title>Artboard 1</title><g id="Layer_1-2" data-name="Layer 1"><g id="Lager_1" data-name="Lager 1"><path class="cls-1" d="M9.31,36c-3,5.19-2,17.59-2,17.59C5.21,43.38,6.89,37.26,8.9,33.83a13.53,13.53,0,0,0,1.26-5.95A51.47,51.47,0,0,0,8.81,18.5c-.08-.17-.08-.33-.17-.5a16.31,16.31,0,0,0-1.51-3.18c-.25-.59,1-.42,1-.42,7.62,1.34,13.4,9,13.4,9A91.57,91.57,0,0,0,9.31,36Z"/><path class="cls-1" d="M57.55,28.89a4.48,4.48,0,0,0-.92,2.34,8.82,8.82,0,0,1-.67,3,20,20,0,0,1-2.26,3.6c-1.51,1.84-3.18,3.6-4.77,5.44-.84.92-.75,1.09.42,1.51a.64.64,0,0,1,.33.17c1.93,1.09,3.85,2.09,5.69,3.35a30.44,30.44,0,0,1,3.85,3.52c.67.75.42,1.34-.5,1.51H58c-1.76-.17-3.43-.25-5.19-.42-3.35-.33-6.7-.67-10-.92a5,5,0,0,0-3.85,1.17A39.52,39.52,0,0,1,25.73,60a56.11,56.11,0,0,1-6.53,1.17A2.51,2.51,0,0,1,18.11,61,5.42,5.42,0,0,1,18.44,60a13.55,13.55,0,0,1,.84-1.51,1.51,1.51,0,0,0-.92.25c-2.68,1.51-5.36,3.1-8,4.61L9.06,64c.5-.25,1-.59-1.26.67a.5.5,0,0,0-.33.08c-.59.25-9.13,4-2.6-3,3.77-3.77,4.44-4.86,11.56-9.55a30.08,30.08,0,0,0,5.86-4.94c.92-1,.84-1.51.17-2.68a47.58,47.58,0,0,1-2.34-4.61,4.39,4.39,0,0,1-.25-2.09c.42.75,2.85,4.86,3.43,5.53,0,0-2.51-5.19-2.26-7,.92,1.34,2.43,4.61,3.68,5.44.08,0-2.6-5.28-2.34-6.87,1.09,1.42,2.68,4.44,3.68,5.53,3.35,3.85,7.87,4.69,12,2.51,3.52-1.84,5.53-5,6.78-8.79.33-1,.75-2.09,1.17-3.18-2,.33-4.1.67-6.36,1.09,0,0-1.67.25-1.93-.67-.5-1.76-.08-3.1,1.26-3.85a15.43,15.43,0,0,1,3.18-1.42c2.76-.75,4.94-2.76,7.37-4.69a28.38,28.38,0,0,0,4.1-4.35c1.34-2,2.6-4,3.94-6,.17-.25.17-.5,0-.5a13.4,13.4,0,0,0-1.76.42c-1.17.33-2.43.75-3.6,1.17-2.26.84-4.52,1.93-7,1.84-2.93-.08-5.53,1-8.12,2.09-.17.08-.25.17-.42.17s-.25.08-.42.17a15.7,15.7,0,0,1,7.54-3.77,51,51,0,0,0,8.71-2.18,39.17,39.17,0,0,1,4.44-1.42c1.67-.42,3.52-.75,5.11.59a2.16,2.16,0,0,1,.59,1.76,32.23,32.23,0,0,1-.08,5.69A27.05,27.05,0,0,1,57.55,28.89Zm.75-3.35-2.76,2c-.08-.42-.17-2.18-.25-2.6-.08-.08-.75,1.09-.92,1.42-.42.59-.92,1.17-1.51,2-.25-1-.5-1.84-.75-2.93-.59.92-1.09,1.76-1.59,2.6-.42-.84-.75-1.84-1.09-2.6,0,0-.42.84-.5,1.09-.25.42-.5.84-.75,1.34-.25-.33-.59-2-.84-2.34-.33.42-.59,2.09-1.09,2.6-.33-.67-.5-1.09-.84-1.67-.42.75-.75,1.26-1.09,1.84-.25-.42-.33-.75-.59-1.26-.5.75-.84,1.42-1.34,2.26-.25-.59-.42-1-.75-1.76a6.89,6.89,0,0,0-.5,1.34c-.25.67-.75,1.34-1,1.34a4.48,4.48,0,0,0-.33-1.84,4.72,4.72,0,0,0-.92,1.67,1.61,1.61,0,0,0,.25,1,1.87,1.87,0,0,0,1.76,0c.33-.17.84-1.17.84-1.17l.92.84,1.26-1.67.75,1.34,1-1.26.84,1,1.17-1.67.84,1.34,1.26-2.09,1.09,1.76,1.26-1.26a11.72,11.72,0,0,0,.84,1.34l1.67-1.09L54.71,30l1.67-1.59-.17,2.76C56.21,28.22,58.73,26.63,58.31,25.54Z"/><path class="cls-1" d="M15.26,65.4a18.73,18.73,0,0,1,4.27,2.18c1.34.92,2.85,1.76,4.27,2.6.42.17,1.09.42,1.42.08s.17-1,0-1.42C24.64,67.41,24,66,23.38,64.48c-.17-.42-.5-.84-.33-1.26.08-.08.17-.25.33-.17a1.18,1.18,0,0,1,.5.59,30.5,30.5,0,0,0,7.37,10.47c3,2.93,6.11,5.78,9.13,8.63a24.77,24.77,0,0,1,2.51,3.18c0-2.85-2.43-4.61-3.18-7.2,2,.75,4,.08,5.95-.25a77.13,77.13,0,0,1,13.9-1A11.32,11.32,0,0,1,62,77.8a3.09,3.09,0,0,1,1.17.59,4,4,0,0,1,.59,1c-.25.17-.5.25-.75.42-.42.08-.92.25-1.51.42h-.08c-7.12,1.93-22.19,8-23.45,23.87-.75-.08-1.09-.67-1.34-1.26a17.86,17.86,0,0,1-1-8.12c.17-3,.33-6,.42-9a3.51,3.51,0,0,0-2.09-3.6c-4.1-2.09-8-4.61-12.14-6.53C19.7,74.61,11,67.33,10.24,65.4,9.9,64.15,14.09,65.07,15.26,65.4Z"/><path class="cls-1" d="M41,17.16a1.36,1.36,0,0,1,.25,2.09c-.42.42-1.76.5-2.09,0-.08-.17-.25-1.09-.33-1.26-.08-.5.25-.67.75-.92A1.26,1.26,0,0,1,41,17.16Zm-1.76,1.59c.08.33.59-.84,1.51-1.34a1.85,1.85,0,0,0-1.26.17C39,17.83,39.13,18.42,39.21,18.76Z"/><path class="cls-2" d="M95.65,73.7a83.09,83.09,0,0,1-11.3-.6c-1.6-.2-2.3-.8-2.3-2.6V24.3a2.33,2.33,0,0,1,2-2.59h.16a94.42,94.42,0,0,1,11-.6c11,0,20.3,2.9,20.3,13.4v1.1a11.15,11.15,0,0,1-7.4,10.9,11.39,11.39,0,0,1,7.7,11.2V59C115.95,70.7,106.55,73.7,95.65,73.7Zm13.7-39.1c0-6.7-5.6-8.1-14-8.1-2.4,0-4.9.1-6.9.2V44h10.7c8.1,0,10.2-3.9,10.2-8.3Zm.3,23.2c0-4.6-2.3-8.8-10.5-8.8H88.45V68.1c2.3.1,4.8.3,7.2.3,8.6,0,13.9-1.9,13.9-9.4V57.8Z"/><path class="cls-2" d="M130.55,73.2h-3.8a1.27,1.27,0,0,1-1.21-1.33V23a1.24,1.24,0,0,1,1.18-1.3h3.82a1.24,1.24,0,0,1,1.2,1.28V71.9a1.17,1.17,0,0,1-1,1.29Z"/><path class="cls-2" d="M175.15,27.1h-13.5V71.9a1.34,1.34,0,0,1-1.28,1.4h-3.82A1.27,1.27,0,0,1,155.34,72V27.1h-13.6c-.8,0-1.4-.3-1.4-1.1V22.9a1.27,1.27,0,0,1,1.33-1.21h33.47a1.18,1.18,0,0,1,1.3,1.2V26C176.45,26.7,175.95,27.1,175.15,27.1Z"/><path class="cls-2" d="M210.75,73.4c-2.6.3-9.4.3-13.5.3-9.7,0-14.8-3.7-14.8-12.9V34.1c0-9.2,5.1-12.9,14.8-12.9,4.1,0,10.6.1,13.5.4a1.09,1.09,0,0,1,.7,1V26a.74.74,0,0,1-.67.8H197.25c-7.4,0-8.5,1.9-8.5,7.2v9.6h21.3a1.37,1.37,0,0,1,1.4,1.34s0,0,0,.06v2.6a1.37,1.37,0,0,1-1.34,1.4H188.75V60.7c0,5.3,1.2,7.2,8.5,7.2h13.4a.74.74,0,0,1,.8.8v3.5A1.18,1.18,0,0,1,210.75,73.4Z"/><path class="cls-2" d="M239.55,73.6h-2.3a.86.86,0,0,1-.7-.6l-2.5-8.9h-10l-2.5,8.9a.86.86,0,0,1-.7.6h-2.3a.67.67,0,0,1-.7-.6v-.3l7.2-25.2a3.79,3.79,0,0,1,4-2.9,3.69,3.69,0,0,1,3.9,2.9l7.2,25.3v.3C240.25,73.3,240.05,73.6,239.55,73.6Zm-9.7-25.3c-.1-.4-.3-.7-.7-.7a.85.85,0,0,0-.8.7L224.85,61h8.6Z"/><path class="cls-2" d="M252,73.8a51.76,51.76,0,0,1-6.3-.3c-.9-.1-1.3-.5-1.3-1.4V46.2c0-.9.4-1.4,1.2-1.4a47.77,47.77,0,0,1,6.2-.3c6.2,0,11.4,1.6,11.4,7.5v.6a6.2,6.2,0,0,1-4.1,6.1,6.32,6.32,0,0,1,4.3,6.3v.7C263.35,72.1,258,73.8,252,73.8Zm7.6-21.8c0-3.7-3.1-4.5-7.8-4.5-1.3,0-2.8.1-3.8.1v9.6h6c4.5,0,5.7-2.2,5.7-4.6V52Zm.1,13c0-2.6-1.3-4.9-5.9-4.9h-6V70.8c1.3,0,2.7.2,4,.2,4.8,0,7.8-1,7.8-5.2V65Z"/></g></g><g id="Layer_3" data-name="Layer 3"><path class="cls-3" d="M88.59,90.75h-.12a.22.22,0,0,1-.2-.23V82.37a.08.08,0,0,0-.08-.08h0c-.06,0-.07,0-.12.11L86,86.78c-.17.35-.35.43-.61.43s-.44-.08-.61-.43L82.7,82.4a.11.11,0,0,0-.12-.11.08.08,0,0,0-.08.08h0v8.15a.22.22,0,0,1-.2.23h-.12a.22.22,0,0,1-.2-.23V82.37a.54.54,0,0,1,.48-.59h.13a.59.59,0,0,1,.55.37l2.1,4.4a.15.15,0,0,0,.16.16c.08,0,.11,0,.16-.16l2.1-4.4a.59.59,0,0,1,.55-.37.54.54,0,0,1,.61.59v8.15a.22.22,0,0,1-.21.23Z"/><path class="cls-3" d="M101.07,90.79h-.14a.21.21,0,0,1-.19-.16l-1-3.25H96.29l-1,3.25a.23.23,0,0,1-.19.16h-.16c-.16,0-.22-.13-.17-.3l2.46-8.12a.78.78,0,0,1,.78-.59.76.76,0,0,1,.77.58l2.46,8.13C101.29,90.65,101.24,90.79,101.07,90.79ZM98.29,82.5a.28.28,0,0,0-.28-.24.26.26,0,0,0-.28.23l-1.32,4.37h3.18Z"/><path class="cls-3" d="M112.75,90.75h-.16a.29.29,0,0,1-.18-.11l-2.55-3.91h-2.11v3.8a.22.22,0,0,1-.2.23h-.12a.22.22,0,0,1-.2-.23V82.05a.24.24,0,0,1,.2-.23h1.87c2.16,0,3.26.61,3.26,2.45v.06a2.19,2.19,0,0,1-2,2.38h-.17l2.42,3.73C112.93,90.56,112.9,90.75,112.75,90.75Zm-.67-6.52c0-1.5-.95-1.94-2.73-1.94H107.8v3.89h1.55c1.86,0,2.73-.41,2.73-1.94Z"/><path class="cls-3" d="M123.94,82.21l-4,3.91,4.11,4.27c.17.18.07.38-.14.38a.41.41,0,0,1-.28-.1l-4.15-4.32v4.16a.22.22,0,0,1-.2.23h-.12a.22.22,0,0,1-.2-.23V82.07a.24.24,0,0,1,.23-.23h.07a.24.24,0,0,1,.23.23V85.9l4.08-4a.4.4,0,0,1,.28-.13.22.22,0,0,1,.23.2A.33.33,0,0,1,123.94,82.21Z"/><path class="cls-3" d="M143.22,90.75h-.38a.2.2,0,0,1-.19-.08l-.76-.8a3.25,3.25,0,0,1-2.45,1c-1.2,0-2.71-.44-2.71-2.08v-.07c0-1,.46-1.58,1.82-2.46-1.31-1.52-1.44-2-1.44-2.53v-.07c0-1.35,1-1.83,2.29-1.83,1.09,0,2.19.48,2.19,1.83v.07c0,.91-.49,1.56-1.88,2.4l-.4.24c.31.35.7.74,1.13,1.21l1.43,1.54a4.64,4.64,0,0,0,.61-2.49V86.5c0-.13,0-.23.18-.23h.17c.13,0,.19.1.19.23v.13a5,5,0,0,1-.79,2.88l1.06,1.14a.18.18,0,0,1,0,.07A.08.08,0,0,1,143.22,90.75Zm-3.15-2.85c-.47-.5-.86-.92-1.19-1.3-1.21.77-1.58,1.16-1.58,2.08v.07c0,1.17,1.08,1.59,2.15,1.59a2.77,2.77,0,0,0,2.11-.85Zm1-4.28c0-1-.73-1.35-1.64-1.35s-1.74.26-1.74,1.35v.07c0,.48.1.84,1.33,2.25l.44-.26c1.31-.78,1.61-1.25,1.61-2Z"/><path class="cls-3" d="M162.2,90.79h-.14a.21.21,0,0,1-.19-.16l-1-3.25h-3.45l-1,3.25a.23.23,0,0,1-.19.16h-.16c-.16,0-.22-.13-.17-.3l2.46-8.12a.78.78,0,0,1,.78-.59.76.76,0,0,1,.77.58l2.46,8.13C162.42,90.65,162.37,90.79,162.2,90.79Zm-2.78-8.29a.29.29,0,0,0-.28-.24.26.26,0,0,0-.28.23l-1.32,4.37h3.21Z"/><path class="cls-3" d="M173.7,90.82a.61.61,0,0,1-.41-.08.91.91,0,0,1-.22-.28l-4-8.09s0-.08-.1-.08-.06,0-.06.08v8.15a.22.22,0,0,1-.2.23h-.12a.21.21,0,0,1-.2-.22h0V82.37a.61.61,0,0,1,1.16-.22l4,8.08s0,.08.1.08.06-.06.06-.11V82.07a.21.21,0,0,1,.19-.23H174a.21.21,0,0,1,.2.22h0v8.14a.55.55,0,0,1-.49.61Z"/><path class="cls-3" d="M184.88,90.75h-2.73c-.91,0-1.45-.34-1.45-1.34V82.07a.22.22,0,0,1,.2-.23H181a.22.22,0,0,1,.2.23v7.34c0,.74.35.85.92.85h2.73c.13,0,.23.07.23.19v.1a.21.21,0,0,1-.22.2Z"/><path class="cls-3" d="M196.84,90.79h-.09a.21.21,0,0,1-.19-.16l-1-3.25h-3.51l-1,3.25a.23.23,0,0,1-.19.16h-.11c-.16,0-.22-.13-.17-.3L193,82.37a.78.78,0,0,1,.78-.59.76.76,0,0,1,.77.58l2.46,8.13C197.06,90.65,197,90.79,196.84,90.79Zm-2.78-8.29a.29.29,0,0,0-.28-.24.26.26,0,0,0-.28.23l-1.32,4.37h3.18ZM192.91,81h-.07a.23.23,0,0,1-.23-.23v-.89a.24.24,0,0,1,.23-.23h.07a.24.24,0,0,1,.23.23v.89A.23.23,0,0,1,192.91,81Zm1.8,0h-.07a.23.23,0,0,1-.23-.23v-.89a.24.24,0,0,1,.23-.23h.11a.24.24,0,0,1,.23.23v.89a.23.23,0,0,1-.23.23Z"/><path class="cls-3" d="M207.57,82.39a17.5,17.5,0,0,0-2.11-.12c-1.2,0-2.48.67-2.48,3.29V87c0,2.27,1,3.27,2.48,3.27a13.67,13.67,0,0,0,1.82-.11V86.4a.21.21,0,0,1,.19-.23h.13a.21.21,0,0,1,.2.22h0v4a.23.23,0,0,1-.2.23,14.5,14.5,0,0,1-2.15.16c-1.7,0-3-1.13-3-3.78V85.56c0-3,1.61-3.78,3-3.78a16.58,16.58,0,0,1,2.16.12c.11,0,.2,0,.2.19v.12C207.82,82.37,207.75,82.41,207.57,82.39Z"/><path class="cls-3" d="M219.16,82.39a17.5,17.5,0,0,0-2.11-.12c-1.2,0-2.48.67-2.48,3.29V87c0,2.27,1,3.27,2.48,3.27a13.67,13.67,0,0,0,1.82-.11V86.4a.21.21,0,0,1,.19-.23h.13a.21.21,0,0,1,.2.22h0v4a.23.23,0,0,1-.2.23,14.5,14.5,0,0,1-2.15.16c-1.7,0-3-1.13-3-3.78V85.56c0-3,1.61-3.78,3-3.78a16.58,16.58,0,0,1,2.16.12c.11,0,.2,0,.2.19v.12C219.42,82.37,219.34,82.41,219.16,82.39Z"/><path class="cls-3" d="M231.22,90.82a.61.61,0,0,1-.41-.08.91.91,0,0,1-.22-.28l-4-8.09s0-.08-.1-.08-.06,0-.06.08v8.15a.22.22,0,0,1-.2.23h-.12a.21.21,0,0,1-.2-.22h0V82.37a.61.61,0,0,1,1.16-.22l4,8.08s0,.08.1.08.06-.06.06-.11V82.07a.21.21,0,0,1,.19-.23h.14a.21.21,0,0,1,.2.22h0v8.14a.55.55,0,0,1-.49.61Z"/><path class="cls-3" d="M238.67,90.75h-.12a.22.22,0,0,1-.2-.23V82.07a.22.22,0,0,1,.2-.23h.12a.22.22,0,0,1,.2.23v8.46A.22.22,0,0,1,238.67,90.75Z"/><path class="cls-3" d="M250.75,90.82a.61.61,0,0,1-.41-.08.91.91,0,0,1-.22-.28l-4-8.09s0-.08-.1-.08-.06,0-.06.08v8.15a.22.22,0,0,1-.2.23h-.12a.22.22,0,0,1-.2-.23V82.37a.61.61,0,0,1,1.16-.22l4,8.08s0,.08.1.08.06-.06.06-.11V82.07a.21.21,0,0,1,.19-.23h.14a.21.21,0,0,1,.2.22h0v8.14a.55.55,0,0,1-.49.61Z"/><path class="cls-3" d="M262.67,82.39a17.5,17.5,0,0,0-2.11-.12c-1.2,0-2.48.67-2.48,3.29V87c0,2.27,1,3.27,2.48,3.27a13.67,13.67,0,0,0,1.82-.11V86.4a.21.21,0,0,1,.19-.23h.18a.21.21,0,0,1,.2.22h0v4a.23.23,0,0,1-.2.23,14.5,14.5,0,0,1-2.15.16c-1.7,0-3-1.13-3-3.78V85.56c0-3,1.61-3.78,3-3.78a16.58,16.58,0,0,1,2.16.12c.11,0,.2,0,.2.19v.12C262.93,82.37,262.85,82.41,262.67,82.39Z"/></g></svg>