<svg xmlns="http://www.w3.org/2000/svg" viewBox="0 0 276.3 117.8"><defs><style>.cls-1{fill:#0092c8;}.cls-2,.cls-3{fill:#fff;}.cls-3{stroke:#fff;stroke-miterlimit:10;stroke-width:0.15px;}</style></defs><title>Artboard 1</title><g id="Layer_1" data-name="Layer 1"><g id="Lager_1" data-name="Lager 1"><path class="cls-1" d="M10,34.8c-3.6,6.2-2.4,21-2.4,21C5.1,43.6,7.1,36.3,9.5,32.2A16.15,16.15,0,0,0,11,25.1,61.46,61.46,0,0,0,9.4,13.9c-.1-.2-.1-.4-.2-.6A19.47,19.47,0,0,0,7.4,9.5C7.1,8.8,8.6,9,8.6,9c9.1,1.6,16,10.8,16,10.8C17.2,25.7,10,34.8,10,34.8Z"/><path class="cls-1" d="M67.6,26.3a5.35,5.35,0,0,0-1.1,2.8,10.53,10.53,0,0,1-.8,3.6A23.91,23.91,0,0,1,63,37c-1.8,2.2-3.8,4.3-5.7,6.5-1,1.1-.9,1.3.5,1.8a.76.76,0,0,1,.4.2c2.3,1.3,4.6,2.5,6.8,4a36.35,36.35,0,0,1,4.6,4.2c.8.9.5,1.6-.6,1.8h-.9c-2.1-.2-4.1-.3-6.2-.5-4-.4-8-.8-12-1.1a6,6,0,0,0-4.6,1.4,47.19,47.19,0,0,1-15.7,8.2,67,67,0,0,1-7.8,1.4,3,3,0,0,1-1.3-.2,6.47,6.47,0,0,1,.4-1.3,16.18,16.18,0,0,1,1-1.8,1.8,1.8,0,0,0-1.1.3c-3.2,1.8-6.4,3.7-9.6,5.5l-1.5.8c.6-.3,1.2-.7-1.5.8a.6.6,0,0,0-.4.1c-.7.3-10.9,4.8-3.1-3.6C9.2,61,10,59.7,18.5,54.1a35.92,35.92,0,0,0,7-5.9c1.1-1.2,1-1.8.2-3.2a56.82,56.82,0,0,1-2.8-5.5,5.24,5.24,0,0,1-.3-2.5c.5.9,3.4,5.8,4.1,6.6,0,0-3-6.2-2.7-8.3,1.1,1.6,2.9,5.5,4.4,6.5.1,0-3.1-6.3-2.8-8.2,1.3,1.7,3.2,5.3,4.4,6.6,4,4.6,9.4,5.6,14.3,3,4.2-2.2,6.6-6,8.1-10.5.4-1.2.9-2.5,1.4-3.8-2.4.4-4.9.8-7.6,1.3,0,0-2,.3-2.3-.8-.6-2.1-.1-3.7,1.5-4.6a18.42,18.42,0,0,1,3.8-1.7c3.3-.9,5.9-3.3,8.8-5.6a33.89,33.89,0,0,0,4.9-5.2c1.6-2.4,3.1-4.8,4.7-7.2.2-.3.2-.6,0-.6a16,16,0,0,0-2.1.5c-1.4.4-2.9.9-4.3,1.4-2.7,1-5.4,2.3-8.4,2.2-3.5-.1-6.6,1.2-9.7,2.5-.2.1-.3.2-.5.2s-.3.1-.5.2c2.7-2.2,5.6-4,9-4.5A60.86,60.86,0,0,0,61.5,4.4a46.77,46.77,0,0,1,5.3-1.7c2-.5,4.2-.9,6.1.7a2.58,2.58,0,0,1,.7,2.1,38.48,38.48,0,0,1-.1,6.8A32.3,32.3,0,0,1,67.6,26.3Zm.9-4-3.3,2.4c-.1-.5-.2-2.6-.3-3.1-.1-.1-.9,1.3-1.1,1.7-.5.7-1.1,1.4-1.8,2.4-.3-1.2-.6-2.2-.9-3.5-.7,1.1-1.3,2.1-1.9,3.1-.5-1-.9-2.2-1.3-3.1,0,0-.5,1-.6,1.3-.3.5-.6,1-.9,1.6-.3-.4-.7-2.4-1-2.8-.4.5-.7,2.5-1.3,3.1-.4-.8-.6-1.3-1-2-.5.9-.9,1.5-1.3,2.2-.3-.5-.4-.9-.7-1.5-.6.9-1,1.7-1.6,2.7-.3-.7-.5-1.2-.9-2.1a8.23,8.23,0,0,0-.6,1.6c-.3.8-.9,1.6-1.2,1.6a5.35,5.35,0,0,0-.4-2.2,5.64,5.64,0,0,0-1.1,2,1.92,1.92,0,0,0,.3,1.2,2.23,2.23,0,0,0,2.1,0c.4-.2,1-1.4,1-1.4l1.1,1,1.5-2,.9,1.6,1.2-1.5,1,1.2,1.4-2,1,1.6,1.5-2.5L59.6,27l1.5-1.5a14,14,0,0,0,1,1.6l2-1.3.1,1.8,2-1.9L66,29C66,25.5,69,23.6,68.5,22.3Z"/><path class="cls-1" d="M17.1,69.9a22.37,22.37,0,0,1,5.1,2.6c1.6,1.1,3.4,2.1,5.1,3.1.5.2,1.3.5,1.7.1s.2-1.2,0-1.7c-.7-1.7-1.5-3.4-2.2-5.2-.2-.5-.6-1-.4-1.5.1-.1.2-.3.4-.2s.5.4.6.7a36.42,36.42,0,0,0,8.8,12.5c3.6,3.5,7.3,6.9,10.9,10.3a29.58,29.58,0,0,1,3,3.8c0-3.4-2.9-5.5-3.8-8.6,2.4.9,4.8.1,7.1-.3A92.1,92.1,0,0,1,70,84.3a13.52,13.52,0,0,1,2.9.4,3.69,3.69,0,0,1,1.4.7,4.73,4.73,0,0,1,.7,1.2c-.3.2-.6.3-.9.5-.5.1-1.1.3-1.8.5h-.1c-8.5,2.3-26.5,9.6-28,28.5-.9-.1-1.3-.8-1.6-1.5a21.33,21.33,0,0,1-1.2-9.7c.2-3.6.4-7.2.5-10.8a4.19,4.19,0,0,0-2.5-4.3c-4.9-2.5-9.5-5.5-14.5-7.8C22.4,80.9,12,72.2,11.1,69.9,10.7,68.4,15.7,69.5,17.1,69.9Z"/><path class="cls-1" d="M47.8,12.3a1.62,1.62,0,0,1,.3,2.5c-.5.5-2.1.6-2.5,0-.1-.2-.3-1.3-.4-1.5-.1-.6.3-.8.9-1.1A1.51,1.51,0,0,1,47.8,12.3Zm-2.1,1.9c.1.4.7-1,1.8-1.6a2.21,2.21,0,0,0-1.5.2C45.5,13.1,45.6,13.8,45.7,14.2Z"/><path class="cls-2" d="M106.9,71.7a83.09,83.09,0,0,1-11.3-.6c-1.6-.2-2.3-.8-2.3-2.6V22.3a2.33,2.33,0,0,1,2.2-2.6,94.42,94.42,0,0,1,11-.6c11,0,20.3,2.9,20.3,13.4v1.1a11.15,11.15,0,0,1-7.4,10.9,11.39,11.39,0,0,1,7.7,11.2V57C127.2,68.7,117.8,71.7,106.9,71.7Zm13.7-39.1c0-6.7-5.6-8.1-14-8.1-2.4,0-4.9.1-6.9.2V42h10.7c8.1,0,10.2-3.9,10.2-8.3Zm.3,23.2c0-4.6-2.3-8.8-10.5-8.8H99.7V66.1c2.3.1,4.8.3,7.2.3,8.6,0,13.9-1.9,13.9-9.4V55.8Z"/><path class="cls-2" d="M141.8,71.2H138a1.27,1.27,0,0,1-1.2-1.4V21a1.24,1.24,0,0,1,1.2-1.3h3.8A1.24,1.24,0,0,1,143,21V69.9A1.17,1.17,0,0,1,141.8,71.2Z"/><path class="cls-2" d="M186.4,25.1H172.9V69.9a1.34,1.34,0,0,1-1.3,1.4h-3.8a1.27,1.27,0,0,1-1.2-1.4V25.1H153c-.8,0-1.4-.3-1.4-1.1V20.9a1.27,1.27,0,0,1,1.4-1.2h33.4a1.18,1.18,0,0,1,1.3,1.2V24C187.7,24.7,187.2,25.1,186.4,25.1Z"/><path class="cls-2" d="M222,71.4c-2.6.3-9.4.3-13.5.3-9.7,0-14.8-3.7-14.8-12.9V32.1c0-9.2,5.1-12.9,14.8-12.9,4.1,0,10.6.1,13.5.4a1.09,1.09,0,0,1,.7,1V24a.74.74,0,0,1-.8.8H208.5c-7.4,0-8.5,1.9-8.5,7.2v9.6h21.3a1.37,1.37,0,0,1,1.4,1.4v2.6a1.37,1.37,0,0,1-1.4,1.4H200V58.7c0,5.3,1.2,7.2,8.5,7.2h13.4a.74.74,0,0,1,.8.8v3.5A1.18,1.18,0,0,1,222,71.4Z"/><path class="cls-2" d="M250.8,71.6h-2.3a.86.86,0,0,1-.7-.6l-2.5-8.9h-10L232.8,71a.86.86,0,0,1-.7.6h-2.3a.67.67,0,0,1-.7-.6v-.3l7.2-25.2a3.79,3.79,0,0,1,4-2.9,3.69,3.69,0,0,1,3.9,2.9l7.2,25.3v.3C251.5,71.3,251.3,71.6,250.8,71.6Zm-9.7-25.3c-.1-.4-.3-.7-.7-.7a.85.85,0,0,0-.8.7L236.1,59h8.6Z"/><path class="cls-2" d="M263.3,71.8a51.76,51.76,0,0,1-6.3-.3c-.9-.1-1.3-.5-1.3-1.4V44.2c0-.9.4-1.4,1.2-1.4a47.77,47.77,0,0,1,6.2-.3c6.2,0,11.4,1.6,11.4,7.5v.6a6.2,6.2,0,0,1-4.1,6.1,6.32,6.32,0,0,1,4.3,6.3v.7C274.6,70.1,269.3,71.8,263.3,71.8ZM270.9,50c0-3.7-3.1-4.5-7.8-4.5-1.3,0-2.8.1-3.8.1v9.6h6c4.5,0,5.7-2.2,5.7-4.6V50Zm.1,13c0-2.6-1.3-4.9-5.9-4.9h-6V68.8c1.3,0,2.7.2,4,.2,4.8,0,7.8-1,7.8-5.2V63Z"/></g></g><g id="Layer_3" data-name="Layer 3"><path class="cls-3" d="M99.84,88.75h-.12a.22.22,0,0,1-.2-.23V80.37a.08.08,0,0,0-.08-.08c-.06,0-.07,0-.12.11l-2.07,4.38c-.17.35-.35.43-.61.43s-.44-.08-.61-.43l-2.08-4.38c0-.08-.06-.11-.12-.11a.08.08,0,0,0-.08.08v8.15a.22.22,0,0,1-.2.23h-.12a.22.22,0,0,1-.2-.23V80.37a.54.54,0,0,1,.61-.59.59.59,0,0,1,.55.37l2.1,4.4c0,.11.08.16.16.16s.11,0,.16-.16l2.1-4.4a.59.59,0,0,1,.55-.37.54.54,0,0,1,.61.59v8.15A.22.22,0,0,1,99.84,88.75Z"/><path class="cls-3" d="M112.32,88.79h-.14a.21.21,0,0,1-.19-.16l-1-3.25h-3.45l-1,3.25a.23.23,0,0,1-.19.16h-.16c-.16,0-.22-.13-.17-.3l2.46-8.12a.78.78,0,0,1,.78-.59.76.76,0,0,1,.77.58l2.46,8.13C112.54,88.65,112.49,88.79,112.32,88.79Zm-2.78-8.29a.28.28,0,0,0-.28-.24.26.26,0,0,0-.28.23l-1.32,4.37h3.18Z"/><path class="cls-3" d="M124,88.75h-.16a.29.29,0,0,1-.18-.11l-2.55-3.91c-.23,0-.31,0-.52,0H119v3.8a.22.22,0,0,1-.2.23h-.12a.22.22,0,0,1-.2-.23V80.05a.24.24,0,0,1,.2-.23c.42,0,1.35,0,1.87,0,2.16,0,3.26.61,3.26,2.45v.06a2.19,2.19,0,0,1-2.15,2.39l2.42,3.73C124.18,88.56,124.15,88.75,124,88.75Zm-.67-6.52c0-1.5-.95-1.94-2.73-1.94-.5,0-1.19,0-1.55,0v3.89h1.55c1.86,0,2.73-.41,2.73-1.94Z"/><path class="cls-3" d="M135.19,80.21l-4,3.91,4.11,4.27c.17.18.07.38-.14.38a.41.41,0,0,1-.28-.1l-4.15-4.32v4.16a.22.22,0,0,1-.2.23h-.12a.22.22,0,0,1-.2-.23V80.07a.24.24,0,0,1,.23-.23h.07a.24.24,0,0,1,.23.23V83.9l4.08-4a.4.4,0,0,1,.28-.13.22.22,0,0,1,.23.2A.33.33,0,0,1,135.19,80.21Z"/><path class="cls-3" d="M154.47,88.75h-.38a.2.2,0,0,1-.19-.08l-.76-.8a3.25,3.25,0,0,1-2.45,1c-1.2,0-2.71-.44-2.71-2.08v-.07c0-1,.46-1.58,1.82-2.46-1.31-1.52-1.44-2-1.44-2.53v-.07c0-1.35,1-1.83,2.29-1.83,1.09,0,2.19.48,2.19,1.83v.07c0,.91-.49,1.56-1.88,2.4l-.4.24c.31.35.7.74,1.13,1.21l1.43,1.54a4.64,4.64,0,0,0,.61-2.49v-.13c0-.13,0-.23.18-.23h.17c.13,0,.19.1.19.23v.13a5,5,0,0,1-.79,2.88l1.06,1.14a.18.18,0,0,1,0,.07A.08.08,0,0,1,154.47,88.75Zm-3.15-2.85c-.47-.5-.86-.92-1.19-1.3-1.21.77-1.58,1.16-1.58,2.08v.07c0,1.17,1.08,1.59,2.15,1.59a2.77,2.77,0,0,0,2.11-.85Zm1-4.28c0-1-.73-1.35-1.64-1.35s-1.74.26-1.74,1.35v.07c0,.48.1.84,1.33,2.25l.44-.26c1.31-.78,1.61-1.25,1.61-2Z"/><path class="cls-3" d="M173.45,88.79h-.14a.21.21,0,0,1-.19-.16l-1-3.25h-3.45l-1,3.25a.23.23,0,0,1-.19.16h-.16c-.16,0-.22-.13-.17-.3l2.46-8.12a.78.78,0,0,1,.78-.59.76.76,0,0,1,.77.58l2.46,8.13C173.67,88.65,173.62,88.79,173.45,88.79Zm-2.78-8.29a.29.29,0,0,0-.28-.24.26.26,0,0,0-.28.23l-1.32,4.37H172Z"/><path class="cls-3" d="M184.95,88.82a.61.61,0,0,1-.41-.08.91.91,0,0,1-.22-.28l-4-8.09s0-.08-.1-.08-.06,0-.06.08v8.15a.22.22,0,0,1-.2.23h-.12a.21.21,0,0,1-.2-.23V80.37a.61.61,0,0,1,1.16-.22l4,8.08s0,.08.1.08.06-.06.06-.11V80.07a.21.21,0,0,1,.19-.23h.14a.21.21,0,0,1,.2.23v8.14A.55.55,0,0,1,184.95,88.82Z"/><path class="cls-3" d="M196.13,88.75H193.4c-.91,0-1.45-.34-1.45-1.34V80.07a.22.22,0,0,1,.2-.23h.12a.22.22,0,0,1,.2.23v7.34c0,.74.35.85.92.85h2.73c.13,0,.23.07.23.19v.1A.21.21,0,0,1,196.13,88.75Z"/><path class="cls-3" d="M208.09,88.79H208a.21.21,0,0,1-.19-.16l-1-3.25H203.3l-1,3.25a.23.23,0,0,1-.19.16H202c-.16,0-.22-.13-.17-.3l2.46-8.12a.78.78,0,0,1,.78-.59.76.76,0,0,1,.77.58l2.46,8.13C208.31,88.65,208.26,88.79,208.09,88.79Zm-2.78-8.29a.29.29,0,0,0-.28-.24.26.26,0,0,0-.28.23l-1.32,4.37h3.18ZM204.16,79h-.07a.23.23,0,0,1-.23-.23v-.89a.24.24,0,0,1,.23-.23h.07a.24.24,0,0,1,.23.23v.89A.23.23,0,0,1,204.16,79Zm1.8,0h-.07a.23.23,0,0,1-.23-.23v-.89a.24.24,0,0,1,.23-.23H206a.24.24,0,0,1,.23.23v.89A.23.23,0,0,1,206,79Z"/><path class="cls-3" d="M218.82,80.39a17.5,17.5,0,0,0-2.11-.12c-1.2,0-2.48.67-2.48,3.29V85c0,2.27,1,3.27,2.48,3.27a13.67,13.67,0,0,0,1.82-.11V84.4a.21.21,0,0,1,.2-.23h.12a.21.21,0,0,1,.2.23v4a.23.23,0,0,1-.2.23,14.5,14.5,0,0,1-2.15.16c-1.7,0-3-1.13-3-3.78V83.56c0-3,1.61-3.78,3-3.78a16.58,16.58,0,0,1,2.16.12c.11,0,.2,0,.2.19v.12C219.07,80.37,219,80.41,218.82,80.39Z"/><path class="cls-3" d="M230.41,80.39a17.5,17.5,0,0,0-2.11-.12c-1.2,0-2.48.67-2.48,3.29V85c0,2.27,1,3.27,2.48,3.27a13.67,13.67,0,0,0,1.82-.11V84.4a.21.21,0,0,1,.2-.23h.12a.21.21,0,0,1,.2.23v4a.23.23,0,0,1-.2.23,14.5,14.5,0,0,1-2.15.16c-1.7,0-3-1.13-3-3.78V83.56c0-3,1.61-3.78,3-3.78a16.58,16.58,0,0,1,2.16.12c.11,0,.2,0,.2.19v.12C230.67,80.37,230.59,80.41,230.41,80.39Z"/><path class="cls-3" d="M242.47,88.82a.61.61,0,0,1-.41-.08.91.91,0,0,1-.22-.28l-4-8.09s0-.08-.1-.08-.06,0-.06.08v8.15a.22.22,0,0,1-.2.23h-.12a.21.21,0,0,1-.2-.23V80.37a.61.61,0,0,1,1.16-.22l4,8.08s0,.08.1.08.06-.06.06-.11V80.07a.21.21,0,0,1,.19-.23h.14a.21.21,0,0,1,.2.23v8.14A.55.55,0,0,1,242.47,88.82Z"/><path class="cls-3" d="M249.92,88.75h-.12a.22.22,0,0,1-.2-.23V80.07a.22.22,0,0,1,.2-.23h.12a.22.22,0,0,1,.2.23v8.46A.22.22,0,0,1,249.92,88.75Z"/><path class="cls-3" d="M262,88.82a.61.61,0,0,1-.41-.08.91.91,0,0,1-.22-.28l-4-8.09s0-.08-.1-.08-.06,0-.06.08v8.15a.22.22,0,0,1-.2.23h-.12a.22.22,0,0,1-.2-.23V80.37a.61.61,0,0,1,1.16-.22l4,8.08s0,.08.1.08.06-.06.06-.11V80.07a.21.21,0,0,1,.19-.23h.14a.21.21,0,0,1,.2.23v8.14A.55.55,0,0,1,262,88.82Z"/><path class="cls-3" d="M273.92,80.39a17.5,17.5,0,0,0-2.11-.12c-1.2,0-2.48.67-2.48,3.29V85c0,2.27,1,3.27,2.48,3.27a13.67,13.67,0,0,0,1.82-.11V84.4a.21.21,0,0,1,.2-.23H274a.21.21,0,0,1,.2.23v4a.23.23,0,0,1-.2.23,14.5,14.5,0,0,1-2.15.16c-1.7,0-3-1.13-3-3.78V83.56c0-3,1.61-3.78,3-3.78a16.58,16.58,0,0,1,2.16.12c.11,0,.2,0,.2.19v.12C274.18,80.37,274.1,80.41,273.92,80.39Z"/></g></svg>