<svg id="Layer_1" data-name="Layer 1" xmlns="http://www.w3.org/2000/svg" viewBox="0 0 418.95 320.84"><defs><style>.cls-1{fill:#fff;}.cls-2{fill:#0092c8;}</style></defs><title>Artboard 1</title><path class="cls-1" d="M104.74,7.25a100,100,0,0,0-100,100c0,55.23,100,206.33,100,206.33s100-151.1,100-206.33A100,100,0,0,0,104.74,7.25Zm0,150a50,50,0,1,1,50-50A50,50,0,0,1,104.74,157.25Z"/><path class="cls-2" d="M314.21,7.25a100,100,0,0,0-100,100c0,55.23,100,206.33,100,206.33s100-151.1,100-206.33A100,100,0,0,0,314.21,7.25Zm0,150a50,50,0,1,1,50-50A50,50,0,0,1,314.21,157.25Z"/></svg>