<svg xmlns="http://www.w3.org/2000/svg" viewBox="0 0 200 200"><defs><style>.cls-1{fill:#fff;}</style></defs><title>Artboard 1</title><g id="Layer_4" data-name="Layer 4"><path class="cls-1" d="M100,1a99,99,0,1,0,99,99A99,99,0,0,0,100,1Zm0,197.26A98.26,98.26,0,1,1,198.26,100,98.26,98.26,0,0,1,100,198.26Z"/><path class="cls-1" d="M100,9.89A90.11,90.11,0,1,0,190.11,100,90.11,90.11,0,0,0,100,9.89Zm0,179.5A89.39,89.39,0,1,1,189.39,100,89.39,89.39,0,0,1,100,189.39Z"/><path class="cls-1" d="M100,25a75,75,0,1,0,75,75A75,75,0,0,0,100,25Zm0,149.43A74.4,74.4,0,1,1,174.41,100,74.41,74.41,0,0,1,100,174.4Z"/><path class="cls-1" d="M100,51.79A48.21,48.21,0,1,0,148.21,100,48.21,48.21,0,0,0,100,51.79Zm0,95.69A47.48,47.48,0,1,1,147.48,100,47.48,47.48,0,0,1,100,147.48Z"/></g></svg>